<?xml version="1.0" encoding="UTF-8" standalone="no"?>
<!-- Created with Inkscape (http://www.inkscape.org/) -->

<svg
   xmlns:dc="http://purl.org/dc/elements/1.1/"
   xmlns:cc="http://creativecommons.org/ns#"
   xmlns:rdf="http://www.w3.org/1999/02/22-rdf-syntax-ns#"
   xmlns:svg="http://www.w3.org/2000/svg"
   xmlns="http://www.w3.org/2000/svg"
   xmlns:sodipodi="http://sodipodi.sourceforge.net/DTD/sodipodi-0.dtd"
   xmlns:inkscape="http://www.inkscape.org/namespaces/inkscape"
   width="200.50644mm"
   height="200.50644mm"
   viewBox="0 0 710.45588 710.45589"
   id="svg2"
   version="1.1"
   inkscape:version="0.92.1 r"
   sodipodi:docname="logo.svg"
   inkscape:export-filename="/home/as/dev/mauzr/doc/_static/logo.png"
   inkscape:export-xdpi="259.44"
   inkscape:export-ydpi="259.44">
  <defs
     id="defs4" />
  <sodipodi:namedview
     id="base"
     pagecolor="#ffffff"
     bordercolor="#666666"
     borderopacity="1.0"
     inkscape:pageopacity="0.0"
     inkscape:pageshadow="2"
     inkscape:zoom="0.5322242"
     inkscape:cx="87.942615"
     inkscape:cy="381.5566"
     inkscape:document-units="px"
     inkscape:current-layer="layer4"
     showgrid="false"
     inkscape:window-width="1366"
     inkscape:window-height="708"
     inkscape:window-x="0"
     inkscape:window-y="31"
     inkscape:window-maximized="1"
     fit-margin-left="3"
     fit-margin-bottom="3"
     fit-margin-right="3"
     fit-margin-top="3"
     showguides="false"
     inkscape:measure-start="-70.9288,224.529"
     inkscape:measure-end="43.4976,42.7357"
     inkscape:snap-object-midpoints="false"
     inkscape:snap-grids="false"
     inkscape:snap-to-guides="false"
     inkscape:snap-center="false"
     inkscape:snap-others="false"
     inkscape:snap-nodes="true"
     inkscape:snap-smooth-nodes="true"
     inkscape:snap-intersection-paths="true"
     inkscape:object-paths="true">
    <inkscape:grid
       type="xygrid"
       id="grid4140"
       originx="-432.28879"
       originy="-733.62215" />
  </sodipodi:namedview>
  <metadata
     id="metadata7">
    <rdf:RDF>
      <cc:Work
         rdf:about="">
        <dc:format>image/svg+xml</dc:format>
        <dc:type
           rdf:resource="http://purl.org/dc/dcmitype/StillImage" />
        <dc:title></dc:title>
      </cc:Work>
    </rdf:RDF>
  </metadata>
  <g
     inkscape:groupmode="layer"
     id="layer3"
     inkscape:label="Grid"
     style="display:none"
     transform="translate(-207.35348,0.04822294)">
    <path
       transform="translate(-224.93533,391.66762)"
       d="m 307.04799,-376.33166 v 744.09451 m 23.4375,-744.09451 v 744.09451 m 23.4375,-744.09451 v 744.09451 m 23.4375,-744.09451 v 744.09451 m 23.4375,-744.09451 v 744.09451 m 23.4375,-744.09451 v 744.09451 m 23.4375,-744.09451 v 744.09451 m 23.4375,-744.09451 v 744.09451 m 23.4375,-744.09451 v 744.09451 m 23.43751,-744.09451 v 744.09451 m 23.4375,-744.09451 v 744.09451 m 23.4375,-744.09451 v 744.09451 m 23.4375,-744.09451 v 744.09451 m 23.4375,-744.09451 v 744.09451 m 23.4375,-744.09451 v 744.09451 m 23.4375,-744.09451 v 744.09451 m 23.4375,-744.09451 v 744.09451 m 23.4375,-744.09451 v 744.09451 m 23.4375,-744.09451 v 744.09451 m 23.4375,-744.09451 v 744.09451 m 23.4375,-744.09451 v 744.09451 m 23.4375,-744.09451 v 744.09451 m 23.4375,-744.09451 v 744.09451 m 23.4375,-744.09451 v 744.09451 m 23.4375,-744.09451 v 744.09451 m 23.4375,-744.09451 v 744.09451 m 23.4375,-744.09451 v 744.09451 m 23.43751,-744.09451 v 744.09451 m 23.4375,-744.09451 v 744.09451 m 23.4375,-744.09451 v 744.09451 m 23.43749,-744.09451 v 744.09451 m 23.4375,-744.09451 v 744.09451 m 23.4375,-744.09451 v 744.09451 m 23.4375,-744.09451 v 744.09451 m 23.4375,-744.09451 v 744.09451 m 23.4375,-744.09451 v 744.09451 m 23.4375,-744.09451 v 744.09451 m 23.4375,-744.09451 v 744.09451 m 23.4375,-744.09451 v 744.09451 m 23.4375,-744.09451 v 744.09451 m 23.4375,-744.09451 v 744.09451 m 23.4375,-744.09451 v 744.09451 m 23.4375,-744.09451 v 744.09451 m 23.4375,-744.09451 v 744.09451 m 23.4375,-744.09451 V 367.76285 M 307.04799,-376.33166 H 1359.4102 m -1052.36221,23.4375 H 1359.4102 m -1052.36221,23.4375 H 1359.4102 m -1052.36221,23.4375 H 1359.4102 m -1052.36221,23.4375 H 1359.4102 m -1052.36221,23.4375 H 1359.4102 m -1052.36221,23.4375 H 1359.4102 m -1052.36221,23.4375 H 1359.4102 m -1052.36221,23.4375 H 1359.4102 M 307.04799,-165.39415 H 1359.4102 m -1052.36221,23.4375 H 1359.4102 m -1052.36221,23.4375 H 1359.4102 M 307.04799,-95.081661 H 1359.4102 m -1052.36221,23.4375 H 1359.4102 m -1052.36221,23.4375 H 1359.4102 m -1052.36221,23.4375 H 1359.4102 M 307.04799,-1.331661 H 1359.4102 M 307.04799,22.105839 H 1359.4102 M 307.04799,45.543339 H 1359.4102 M 307.04799,68.980839 H 1359.4102 M 307.04799,92.41835 H 1359.4102 M 307.04799,115.85585 H 1359.4102 M 307.04799,139.29335 H 1359.4102 M 307.04799,162.73085 H 1359.4102 M 307.04799,186.16835 H 1359.4102 M 307.04799,209.60585 H 1359.4102 M 307.04799,233.04335 H 1359.4102 M 307.04799,256.48086 H 1359.4102 M 307.04799,279.91836 H 1359.4102 M 307.04799,303.35586 H 1359.4102 M 307.04799,326.79336 H 1359.4102 M 307.04799,350.23086 H 1359.4102"
       style="display:inline;fill:none;stroke:#fa0000;stroke-width:0.9375;stroke-miterlimit:4;stroke-dasharray:none;stroke-opacity:1"
       id="path5210"
       inkscape:connector-curvature="0" />
  </g>
  <g
     inkscape:groupmode="layer"
     id="layer4"
     inkscape:label="Chip"
     style="display:inline"
     transform="translate(-207.35348,0.04822294)">
    <g
       style="display:inline"
       id="g5174"
       transform="matrix(2.2834187,0,0,2.382887,-277.32731,-155.99842)">
      <path
         sodipodi:nodetypes="cccccccc"
         inkscape:connector-curvature="0"
         id="path4136"
         d="m 265.71499,116.64859 h 17.63338 9.09131 150.41694 l 27.14268,25.71412 v 170.00104 l -204.28431,-0.002 z"
         style="fill:#000000;fill-opacity:1;fill-rule:evenodd;stroke:#000000;stroke-width:0.99999315px;stroke-linecap:butt;stroke-linejoin:miter;stroke-opacity:1" />
      <ellipse
         ry="79.999992"
         rx="85"
         cy="213.04428"
         cx="366.66074"
         id="path4597"
         style="opacity:1;fill:#faffff;fill-opacity:1;stroke:none;stroke-width:5;stroke-linecap:butt;stroke-linejoin:miter;stroke-miterlimit:4;stroke-dasharray:none;stroke-dashoffset:0;stroke-opacity:1" />
      <path
         sodipodi:nodetypes="ccc"
         inkscape:connector-curvature="0"
         id="path4540"
         d="m 293,228.3622 c 27.45736,31.34549 122.80492,33.24697 150.3736,-2.28931 C 442.31217,291.84614 289.20428,286.59584 293,228.3622 Z"
         style="fill:#000000;fill-opacity:1;fill-rule:evenodd;stroke:none;stroke-width:1px;stroke-linecap:butt;stroke-linejoin:miter;stroke-opacity:1" />
      <path
         sodipodi:nodetypes="ccc"
         inkscape:connector-curvature="0"
         id="path4576"
         d="m 293.61799,229.71701 c 22.61712,29.39414 118.11975,35.39411 148.96795,-1.66074 -6.62106,64.02781 -150.10148,53.66397 -148.96795,1.66074 z"
         style="fill:#ffffff;fill-opacity:1;fill-rule:evenodd;stroke:none;stroke-width:1px;stroke-linecap:butt;stroke-linejoin:miter;stroke-opacity:1" />
      <path
         sodipodi:nodetypes="ccccccccccccccccccccccccccccccccccc"
         inkscape:connector-curvature="0"
         id="path4542"
         d="m 441.79,234.51068 c -0.77552,-1.79699 -1.31197,-1.51015 -2.45081,-2.32991 -0.33199,2.40764 0.86123,4.34005 0.57536,7.30377 -1.8896,-0.77301 -2.39356,-3.77237 -4.39505,-4.45203 -1.2808,4.14733 0.62582,8.29466 -0.19629,12.44199 -3.84442,-2.23212 -4.31386,-5.87112 -7.02078,-7.40992 -0.9169,4.88187 1.26418,9.32118 0.37366,14.19928 -3.48231,-3.04837 -4.34105,-7.47698 -7.97152,-10.37959 -0.65209,5.9087 1.42752,9.6548 0.63997,15.57601 -3.32115,-4.93358 -4.06568,-7.42934 -7.45316,-12.70361 -1.5721,7.18895 0.52771,10.56784 -0.52844,16.88567 -4.00077,-5.26295 -4.11629,-9.05916 -8.12753,-14.39457 -1.14782,6.70073 0.63152,11.71024 -0.0172,17.55465 -4.48661,-4.8864 -5.88488,-10.99015 -9.83985,-15.86002 -2.36694,6.88345 -1.97392,14.5597 -4.32799,19.6356 -4.12456,-5.89052 -4.31936,-12.37992 -7.79538,-18.00041 -2.95981,6.2943 -3.12664,12.97897 -6.23279,19.69137 -3.31718,-6.25499 -4.34262,-12.66792 -7.83482,-18.77206 -3.10986,6.62867 -3.6005,12.25918 -6.57415,18.88862 -3.79215,-6.7455 -4.84236,-13.36247 -8.6459,-19.54285 -2.83743,5.93788 -3.34252,11.9455 -5.90064,18.30234 -2.77781,-6.3811 -3.6833,-13.63696 -6.46679,-19.87586 -3.3266,5.51883 -3.70573,10.38579 -6.75951,16.77831 -1.42219,-7.93544 -1.44872,-10.22686 -2.31668,-17.60695 -2.98709,5.96737 -3.34729,7.81442 -6.85593,14.32405 -0.52419,-6.92529 -0.1892,-8.68614 -1.3404,-16.9041 -3.88172,5.26622 -3.72118,7.80931 -6.76871,13.64135 -1.47366,-6.29478 -0.25264,-9.23964 -1.35881,-16.3958 -2.662,4.94851 -2.98856,7.45884 -6.21178,12.16683 -0.5613,-5.59101 0.78463,-10.10806 -0.0797,-15.41117 -2.8741,2.90581 -3.67204,6.06173 -7.32479,9.01316 0.64066,-3.83989 1.85825,-7.26784 1.69757,-11.83555 -2.51376,2.49193 -3.68035,4.87896 -5.10797,8.76736 -0.51054,-4.43367 1.19653,-8.38404 0.69277,-12.00247 -1.68181,1.10107 -3.27062,2.85306 -4.79598,5.04926"
         style="fill:none;fill-rule:evenodd;stroke:#000000;stroke-width:1px;stroke-linecap:butt;stroke-linejoin:miter;stroke-opacity:1" />
      <path
         sodipodi:nodetypes="sssss"
         inkscape:connector-curvature="0"
         id="path4562"
         d="m 357.9099,228.15659 c 2.1351,-10.81243 -13.17798,-23.94034 -22.66432,-24.0735 -10.60291,-0.14883 -26.53233,6.61993 -27.47903,16.55787 -0.86057,9.03391 11.91961,19.78757 23.72121,19.49367 9.66713,-0.24074 24.54878,-2.4911 26.42214,-11.97804 z"
         style="fill:#000000;fill-opacity:1;fill-rule:evenodd;stroke:none;stroke-width:1px;stroke-linecap:butt;stroke-linejoin:miter;stroke-opacity:1" />
      <path
         sodipodi:nodetypes="ccc"
         inkscape:connector-curvature="0"
         id="path4560"
         d="m 309.64546,220.4061 c 17.95962,-22.03277 37.48668,-16.66019 46.50297,7.39819 -9.26634,16.41012 -45.50362,13.36336 -46.50297,-7.39819 z"
         style="fill:#ffffff;fill-opacity:1;fill-rule:evenodd;stroke:none;stroke-width:1px;stroke-linecap:butt;stroke-linejoin:miter;stroke-opacity:1" />
      <path
         sodipodi:nodetypes="ccccc"
         inkscape:connector-curvature="0"
         id="path4546"
         d="m 329.21964,205.34809 c -4.2393,10.45979 -5.01173,21.96959 0.64169,33.16851 l 6.36284,-0.16144 c 3.08877,-5.27756 5.48859,-21.33512 -0.38524,-32.90303 z"
         style="fill:#000000;fill-opacity:1;fill-rule:evenodd;stroke:none;stroke-width:1px;stroke-linecap:butt;stroke-linejoin:miter;stroke-opacity:1" />
      <path
         sodipodi:nodetypes="sssss"
         inkscape:connector-curvature="0"
         id="path4556"
         d="m 376.75769,227.68686 c -0.30813,-7.44465 9.75297,-24.82694 22.60561,-24.96431 14.30419,-0.15288 27.57196,11.30034 27.43038,15.97906 -0.45587,15.06474 -17.17633,20.43549 -25.43405,20.37613 -8.97976,-0.0645 -24.42701,-7.16446 -24.60194,-11.39088 z"
         style="fill:#000000;fill-opacity:1;fill-rule:evenodd;stroke:none;stroke-width:1px;stroke-linecap:butt;stroke-linejoin:miter;stroke-opacity:1" />
      <path
         sodipodi:nodetypes="ccc"
         inkscape:connector-curvature="0"
         id="path4558"
         d="m 379.18618,227.40148 c 5.04578,-25.59625 32.98726,-27.91669 45.50415,-8.30368 0.9806,21.17357 -35.31695,22.55993 -45.50415,8.30368 z"
         style="fill:#ffffff;fill-opacity:1;fill-rule:evenodd;stroke:none;stroke-width:1px;stroke-linecap:butt;stroke-linejoin:miter;stroke-opacity:1" />
      <path
         sodipodi:nodetypes="ccccc"
         inkscape:connector-curvature="0"
         id="path4550"
         d="m 402.51951,204.98155 -4.65006,-0.16607 c -5.9564,11.06366 -4.20344,26.5272 1.16251,33.13167 l 3.40451,0.33218 c 7.74775,-10.3669 4.49912,-23.87258 0.083,-33.29778 z"
         style="fill:#000000;fill-opacity:1;fill-rule:evenodd;stroke:none;stroke-width:1px;stroke-linecap:butt;stroke-linejoin:miter;stroke-opacity:1" />
      <path
         sodipodi:nodetypes="scsscss"
         inkscape:connector-curvature="0"
         id="path4552"
         d="m 394.38191,193.02425 c 4.69509,-5.02028 18.77995,-23.7391 19.59668,-37.86476 21.88304,11.10348 20.65196,46.22866 18.93238,50.32028 -1.37912,3.28153 -10.04332,2.16955 -10.29656,-1.16252 -0.8022,-10.55509 8.41415,-25.2055 -8.8019,-38.19691 -6.53186,19.58523 -12.67208,22.09377 -18.10202,28.2325 -0.56715,0.64118 -1.75638,-0.87116 -1.32858,-1.32859 z"
         style="fill:#000000;fill-opacity:1;fill-rule:evenodd;stroke:none;stroke-width:1px;stroke-linecap:butt;stroke-linejoin:miter;stroke-opacity:1" />
      <path
         sodipodi:nodetypes="scsscss"
         inkscape:connector-curvature="0"
         id="path4554"
         d="m 339.41157,190.36708 c -3.74553,-2.80915 -17.72792,-18.74837 -20.92526,-36.3701 -25.79183,19.1561 -18.25113,40.7412 -16.77343,48.16132 0.75599,3.79611 11.90651,1.0948 10.46264,-2.65718 -9.02715,-23.45748 2.91792,-32.98551 6.47686,-35.87188 7.27974,16.3596 13.79701,24.84883 19.09846,28.06643 1.66702,1.01176 1.86567,-1.17488 1.66073,-1.32859 z"
         style="fill:#000000;fill-opacity:1;fill-rule:evenodd;stroke:none;stroke-width:1px;stroke-linecap:butt;stroke-linejoin:miter;stroke-opacity:1" />
      <path
         sodipodi:nodetypes="ssssssssss"
         inkscape:connector-curvature="0"
         id="path4572"
         d="m 356.73558,241.54381 c -0.0943,-2.03217 4.09984,-3.30553 6.10645,-3.64039 1.80973,-0.302 4.15426,1.64522 5.98902,1.64406 2.63314,-0.002 3.8649,-2.21467 6.45874,-1.76149 2.24841,0.39283 6.08518,1.25051 5.87159,3.52296 -0.22251,2.36738 -5.02975,0.42122 -6.81104,1.99633 -1.08855,0.96255 -0.65275,3.56525 -1.87891,4.34498 -1.75188,1.11405 -4.30975,1.0388 -6.22388,0.23486 -1.60955,-0.67602 -2.11446,-2.84385 -3.52295,-3.87525 -1.73815,-1.2728 -5.88911,-0.31404 -5.98902,-2.46606 z"
         style="fill:#000000;fill-opacity:1;fill-rule:evenodd;stroke:none;stroke-width:1px;stroke-linecap:butt;stroke-linejoin:miter;stroke-opacity:1" />
      <path
         sodipodi:nodetypes="ssssssss"
         inkscape:connector-curvature="0"
         id="path4574"
         d="m 362.07873,240.54563 c 0.75674,-2.09132 4.38327,0.3854 6.66425,0.32294 2.6233,-0.0718 6.8689,-1.94977 7.66241,-0.64587 0.88735,1.4581 -2.72335,1.46097 -3.69909,2.61286 -0.81474,0.96184 -0.56745,2.74987 -1.64405,3.40552 -1.23744,0.7536 -3.16492,0.7232 -4.34497,-0.11743 -0.8601,-0.61271 -0.86131,-2.1808 -1.49725,-3.02387 -0.88044,-1.16722 -3.68339,-1.05604 -3.1413,-2.55415 z"
         style="fill:#ffffff;fill-opacity:1;fill-rule:evenodd;stroke:none;stroke-width:1px;stroke-linecap:butt;stroke-linejoin:miter;stroke-opacity:1" />
    </g>
  </g>
  <g
     inkscape:label="Wires"
     inkscape:groupmode="layer"
     id="layer1"
     transform="translate(-432.28881,391.71584)"
     style="display:inline">
    <path
       style="fill:none;fill-rule:evenodd;stroke:#000000;stroke-width:9.375;stroke-linecap:round;stroke-linejoin:miter;stroke-miterlimit:4;stroke-dasharray:none;stroke-opacity:1"
       d="M 564.8605,-259.20284 V -376.33166"
       id="path5214"
       inkscape:connector-curvature="0"
       sodipodi:nodetypes="cc" />
    <path
       style="fill:none;fill-rule:evenodd;stroke:#000000;stroke-width:9.375;stroke-linecap:round;stroke-linejoin:miter;stroke-miterlimit:4;stroke-dasharray:none;stroke-opacity:1"
       d="M 588.298,-259.20284 V -376.33166"
       id="path5214-9"
       inkscape:connector-curvature="0"
       sodipodi:nodetypes="cc" />
    <path
       style="fill:none;fill-rule:evenodd;stroke:#000000;stroke-width:9.375;stroke-linecap:round;stroke-linejoin:miter;stroke-miterlimit:4;stroke-dasharray:none;stroke-opacity:1"
       d="M 611.7355,-259.20284 V -376.33166"
       id="path5214-1"
       inkscape:connector-curvature="0"
       sodipodi:nodetypes="cc" />
    <path
       style="fill:none;fill-rule:evenodd;stroke:#000000;stroke-width:9.375;stroke-linecap:round;stroke-linejoin:miter;stroke-miterlimit:4;stroke-dasharray:none;stroke-opacity:1"
       d="M 635.173,-259.20284 V -376.33166"
       id="path5214-2"
       inkscape:connector-curvature="0"
       sodipodi:nodetypes="cc" />
    <path
       style="fill:none;fill-rule:evenodd;stroke:#000000;stroke-width:9.375;stroke-linecap:round;stroke-linejoin:miter;stroke-miterlimit:4;stroke-dasharray:none;stroke-opacity:1"
       d="M 658.6105,-259.20284 V -376.33166"
       id="path5214-7"
       inkscape:connector-curvature="0"
       sodipodi:nodetypes="cc" />
    <path
       style="fill:none;fill-rule:evenodd;stroke:#000000;stroke-width:9.375;stroke-linecap:round;stroke-linejoin:miter;stroke-miterlimit:4;stroke-dasharray:none;stroke-opacity:1"
       d="M 682.048,-259.20284 V -376.33166"
       id="path5214-0"
       inkscape:connector-curvature="0"
       sodipodi:nodetypes="cc" />
    <path
       style="fill:none;fill-rule:evenodd;stroke:#000000;stroke-width:9.375;stroke-linecap:round;stroke-linejoin:miter;stroke-miterlimit:4;stroke-dasharray:none;stroke-opacity:1"
       d="M 705.4855,-259.20284 V -376.33166"
       id="path5214-93"
       inkscape:connector-curvature="0"
       sodipodi:nodetypes="cc" />
    <path
       style="fill:none;fill-rule:evenodd;stroke:#000000;stroke-width:9.375;stroke-linecap:round;stroke-linejoin:miter;stroke-miterlimit:4;stroke-dasharray:none;stroke-opacity:1"
       d="M 728.923,-259.20284 V -376.33166"
       id="path5214-6"
       inkscape:connector-curvature="0"
       sodipodi:nodetypes="cc" />
    <path
       style="fill:none;fill-rule:evenodd;stroke:#000000;stroke-width:9.375;stroke-linecap:round;stroke-linejoin:miter;stroke-miterlimit:4;stroke-dasharray:none;stroke-opacity:1"
       d="m 799.2355,-259.20284 v -46.81632 l -23.4375,-23.4375 h -23.4375 v -46.875"
       id="path5214-18"
       inkscape:connector-curvature="0"
       sodipodi:nodetypes="ccccc" />
    <path
       style="fill:none;fill-rule:evenodd;stroke:#000000;stroke-width:9.375;stroke-linecap:round;stroke-linejoin:miter;stroke-miterlimit:4;stroke-dasharray:none;stroke-opacity:1"
       d="m 822.673,-259.20284 v -70.25382 l -23.4375,-23.4375 v -23.4375"
       id="path5214-79"
       inkscape:connector-curvature="0"
       sodipodi:nodetypes="cccc" />
    <path
       style="fill:none;fill-rule:evenodd;stroke:#000000;stroke-width:9.375;stroke-linecap:round;stroke-linejoin:miter;stroke-miterlimit:4;stroke-dasharray:none;stroke-opacity:1"
       d="M 846.1105,-259.20284 V -376.33166"
       id="path5214-20"
       inkscape:connector-curvature="0"
       sodipodi:nodetypes="cc" />
    <path
       style="fill:none;fill-rule:evenodd;stroke:#000000;stroke-width:9.375;stroke-linecap:round;stroke-linejoin:miter;stroke-miterlimit:4;stroke-dasharray:none;stroke-opacity:1"
       d="M 869.548,-259.20284 V -376.33166"
       id="path5214-23"
       inkscape:connector-curvature="0"
       sodipodi:nodetypes="cc" />
    <path
       style="fill:none;fill-rule:evenodd;stroke:#000000;stroke-width:9.375;stroke-linecap:round;stroke-linejoin:miter;stroke-miterlimit:4;stroke-dasharray:none;stroke-opacity:1"
       d="M 892.9855,-259.20284 V -376.33166"
       id="path5214-75"
       inkscape:connector-curvature="0"
       sodipodi:nodetypes="cc" />
    <path
       style="fill:none;fill-rule:evenodd;stroke:#000000;stroke-width:9.375;stroke-linecap:round;stroke-linejoin:miter;stroke-miterlimit:4;stroke-dasharray:none;stroke-opacity:1"
       d="M 916.423,-259.20284 V -376.33166"
       id="path5214-92"
       inkscape:connector-curvature="0"
       sodipodi:nodetypes="cc" />
    <path
       style="fill:none;fill-rule:evenodd;stroke:#000000;stroke-width:9.375;stroke-linecap:round;stroke-linejoin:miter;stroke-miterlimit:4;stroke-dasharray:none;stroke-opacity:1"
       d="M 939.86051,-259.20284 V -376.33166"
       id="path5214-28"
       inkscape:connector-curvature="0"
       sodipodi:nodetypes="cc" />
    <path
       style="fill:none;fill-rule:evenodd;stroke:#000000;stroke-width:9.375;stroke-linecap:round;stroke-linejoin:miter;stroke-miterlimit:4;stroke-dasharray:none;stroke-opacity:1"
       d="M 564.8605,-259.14416 H 447.73168"
       id="path5214-97"
       inkscape:connector-curvature="0"
       sodipodi:nodetypes="cc" />
    <path
       style="fill:none;fill-rule:evenodd;stroke:#000000;stroke-width:9.375;stroke-linecap:round;stroke-linejoin:miter;stroke-miterlimit:4;stroke-dasharray:none;stroke-opacity:1"
       d="M 564.8605,-235.70666 H 447.73168"
       id="path5214-97-5"
       inkscape:connector-curvature="0"
       sodipodi:nodetypes="cc" />
    <path
       style="fill:none;fill-rule:evenodd;stroke:#000000;stroke-width:9.375;stroke-linecap:round;stroke-linejoin:miter;stroke-miterlimit:4;stroke-dasharray:none;stroke-opacity:1"
       d="M 564.80181,-212.26916 H 517.9855 l -46.87501,46.87501 h -23.4375"
       id="path5214-97-2"
       inkscape:connector-curvature="0"
       sodipodi:nodetypes="cccc" />
    <path
       style="fill:none;fill-rule:evenodd;stroke:#000000;stroke-width:9.375;stroke-linecap:round;stroke-linejoin:miter;stroke-miterlimit:4;stroke-dasharray:none;stroke-opacity:1"
       d="M 564.8605,-141.95665 H 447.73168"
       id="path5214-97-2-5-7"
       inkscape:connector-curvature="0"
       sodipodi:nodetypes="cc" />
    <path
       style="fill:none;fill-rule:evenodd;stroke:#000000;stroke-width:9.375;stroke-linecap:round;stroke-linejoin:miter;stroke-miterlimit:4;stroke-dasharray:none;stroke-opacity:1"
       d="M 564.80181,-118.51915 H 447.67299"
       id="path5214-97-2-5-44"
       inkscape:connector-curvature="0"
       sodipodi:nodetypes="cc" />
    <path
       style="fill:none;fill-rule:evenodd;stroke:#000000;stroke-width:9.375;stroke-linecap:round;stroke-linejoin:miter;stroke-miterlimit:4;stroke-dasharray:none;stroke-opacity:1"
       d="M 564.8605,-95.081661 H 447.73168"
       id="path5214-97-2-5-3"
       inkscape:connector-curvature="0"
       sodipodi:nodetypes="cc" />
    <path
       style="fill:none;fill-rule:evenodd;stroke:#000000;stroke-width:9.375;stroke-linecap:round;stroke-linejoin:miter;stroke-miterlimit:4;stroke-dasharray:none;stroke-opacity:1"
       d="M 564.80181,-71.644161 H 447.67299"
       id="path5214-97-2-5-0"
       inkscape:connector-curvature="0"
       sodipodi:nodetypes="cc" />
    <path
       style="fill:none;fill-rule:evenodd;stroke:#000000;stroke-width:9.375;stroke-linecap:round;stroke-linejoin:miter;stroke-miterlimit:4;stroke-dasharray:none;stroke-opacity:1"
       d="M 564.8605,-48.206661 H 447.73168"
       id="path5214-97-2-5-78"
       inkscape:connector-curvature="0"
       sodipodi:nodetypes="cc" />
    <path
       style="fill:none;fill-rule:evenodd;stroke:#000000;stroke-width:9.375;stroke-linecap:round;stroke-linejoin:miter;stroke-miterlimit:4;stroke-dasharray:none;stroke-opacity:1"
       d="M 564.8605,-24.769161 H 447.73168"
       id="path5214-97-2-5-6"
       inkscape:connector-curvature="0"
       sodipodi:nodetypes="cc" />
    <path
       style="fill:none;fill-rule:evenodd;stroke:#000000;stroke-width:9.375;stroke-linecap:round;stroke-linejoin:miter;stroke-miterlimit:4;stroke-dasharray:none;stroke-opacity:1"
       d="M 564.8605,-1.331661 H 447.73168"
       id="path5214-97-2-5-8"
       inkscape:connector-curvature="0"
       sodipodi:nodetypes="cc" />
    <path
       style="fill:none;fill-rule:evenodd;stroke:#000000;stroke-width:9.375;stroke-linecap:round;stroke-linejoin:miter;stroke-miterlimit:4;stroke-dasharray:none;stroke-opacity:1"
       d="m 564.8605,22.105839 h -70.31251 l -23.4375,23.4375 h -23.4375"
       id="path5214-97-2-5-84"
       inkscape:connector-curvature="0"
       sodipodi:nodetypes="cccc" />
    <path
       style="fill:none;fill-rule:evenodd;stroke:#000000;stroke-width:9.375;stroke-linecap:round;stroke-linejoin:miter;stroke-miterlimit:4;stroke-dasharray:none;stroke-opacity:1"
       d="m 564.8605,45.543339 h -46.875 l -23.43751,23.4375 h -46.875"
       id="path5214-97-2-5-31"
       inkscape:connector-curvature="0"
       sodipodi:nodetypes="cccc" />
    <path
       style="fill:none;fill-rule:evenodd;stroke:#000000;stroke-width:9.375;stroke-linecap:round;stroke-linejoin:miter;stroke-miterlimit:4;stroke-dasharray:none;stroke-opacity:1"
       d="m 564.8605,115.85585 h -46.875 l -23.43751,-23.4375 h -46.81631"
       id="path5214-97-2-5-06"
       inkscape:connector-curvature="0"
       sodipodi:nodetypes="cccc" />
    <path
       style="fill:none;fill-rule:evenodd;stroke:#000000;stroke-width:9.375;stroke-linecap:round;stroke-linejoin:miter;stroke-miterlimit:4;stroke-dasharray:none;stroke-opacity:1"
       d="m 564.8605,139.29335 h -70.31251 l -23.4375,-23.4375 h -23.4375"
       id="path5214-97-2-5-89"
       inkscape:connector-curvature="0"
       sodipodi:nodetypes="cccc" />
    <path
       style="fill:none;fill-rule:evenodd;stroke:#000000;stroke-width:9.375;stroke-linecap:round;stroke-linejoin:miter;stroke-miterlimit:4;stroke-dasharray:none;stroke-opacity:1"
       d="M 564.8605,162.73085 H 447.73168"
       id="path5214-97-2-5-26"
       inkscape:connector-curvature="0"
       sodipodi:nodetypes="cc" />
    <path
       style="fill:none;fill-rule:evenodd;stroke:#000000;stroke-width:9.375;stroke-linecap:round;stroke-linejoin:miter;stroke-miterlimit:4;stroke-dasharray:none;stroke-opacity:1"
       d="M 564.8605,186.16835 H 447.73168"
       id="path5214-97-2-5-64"
       inkscape:connector-curvature="0"
       sodipodi:nodetypes="cc" />
    <path
       style="fill:none;fill-rule:evenodd;stroke:#000000;stroke-width:9.375;stroke-linecap:round;stroke-linejoin:miter;stroke-miterlimit:4;stroke-dasharray:none;stroke-opacity:1"
       d="M 564.8605,303.35586 V 186.22704"
       id="path5214-95"
       inkscape:connector-curvature="0"
       sodipodi:nodetypes="cc" />
    <path
       style="fill:none;fill-rule:evenodd;stroke:#000000;stroke-width:9.375;stroke-linecap:round;stroke-linejoin:miter;stroke-miterlimit:4;stroke-dasharray:none;stroke-opacity:1"
       d="M 588.298,303.29717 V 186.16835"
       id="path5214-04"
       inkscape:connector-curvature="0"
       sodipodi:nodetypes="cc" />
    <path
       style="fill:none;fill-rule:evenodd;stroke:#000000;stroke-width:9.375;stroke-linecap:round;stroke-linejoin:miter;stroke-miterlimit:4;stroke-dasharray:none;stroke-opacity:1"
       d="M 635.173,303.29717 V 186.16835"
       id="path5214-8"
       inkscape:connector-curvature="0"
       sodipodi:nodetypes="cc" />
    <path
       style="fill:none;fill-rule:evenodd;stroke:#000000;stroke-width:9.375;stroke-linecap:round;stroke-linejoin:miter;stroke-miterlimit:4;stroke-dasharray:none;stroke-opacity:1"
       d="M 611.7355,303.29717 V 186.16835"
       id="path5214-71"
       inkscape:connector-curvature="0"
       sodipodi:nodetypes="cc" />
    <path
       style="fill:none;fill-rule:evenodd;stroke:#000000;stroke-width:9.375;stroke-linecap:round;stroke-linejoin:miter;stroke-miterlimit:4;stroke-dasharray:none;stroke-opacity:1"
       d="M 658.6105,303.29717 V 186.16835"
       id="path5214-72"
       inkscape:connector-curvature="0"
       sodipodi:nodetypes="cc" />
    <path
       style="fill:none;fill-rule:evenodd;stroke:#000000;stroke-width:9.375;stroke-linecap:round;stroke-linejoin:miter;stroke-miterlimit:4;stroke-dasharray:none;stroke-opacity:1"
       d="M 682.048,303.29717 V 186.16835"
       id="path5214-722"
       inkscape:connector-curvature="0"
       sodipodi:nodetypes="cc" />
    <path
       style="fill:none;fill-rule:evenodd;stroke:#000000;stroke-width:9.375;stroke-linecap:round;stroke-linejoin:miter;stroke-miterlimit:4;stroke-dasharray:none;stroke-opacity:1"
       d="M 705.4855,303.29717 V 186.16835"
       id="path5214-61"
       inkscape:connector-curvature="0"
       sodipodi:nodetypes="cc" />
    <path
       style="fill:none;fill-rule:evenodd;stroke:#000000;stroke-width:9.375;stroke-linecap:round;stroke-linejoin:miter;stroke-miterlimit:4;stroke-dasharray:none;stroke-opacity:1"
       d="M 728.923,303.29717 V 186.16835"
       id="path5214-061"
       inkscape:connector-curvature="0"
       sodipodi:nodetypes="cc" />
    <path
       style="fill:none;fill-rule:evenodd;stroke:#000000;stroke-width:9.375;stroke-linecap:round;stroke-linejoin:miter;stroke-miterlimit:4;stroke-dasharray:none;stroke-opacity:1"
       d="M 752.3605,303.29717 V 186.16835"
       id="path5214-5"
       inkscape:connector-curvature="0"
       sodipodi:nodetypes="cc" />
    <path
       style="fill:none;fill-rule:evenodd;stroke:#000000;stroke-width:9.375;stroke-linecap:round;stroke-linejoin:miter;stroke-miterlimit:4;stroke-dasharray:none;stroke-opacity:1"
       d="M 775.798,303.29717 V 186.16835"
       id="path5214-94"
       inkscape:connector-curvature="0"
       sodipodi:nodetypes="cc" />
    <path
       style="fill:none;fill-rule:evenodd;stroke:#000000;stroke-width:9.375;stroke-linecap:round;stroke-linejoin:miter;stroke-miterlimit:4;stroke-dasharray:none;stroke-opacity:1"
       d="M 799.2355,303.29717 V 186.16835"
       id="path5214-90"
       inkscape:connector-curvature="0"
       sodipodi:nodetypes="cc" />
    <path
       style="fill:none;fill-rule:evenodd;stroke:#000000;stroke-width:9.375;stroke-linecap:round;stroke-linejoin:miter;stroke-miterlimit:4;stroke-dasharray:none;stroke-opacity:1"
       d="M 822.673,303.35586 V 186.22704"
       id="path5214-91"
       inkscape:connector-curvature="0"
       sodipodi:nodetypes="cc" />
    <path
       style="fill:none;fill-rule:evenodd;stroke:#000000;stroke-width:9.375;stroke-linecap:round;stroke-linejoin:miter;stroke-miterlimit:4;stroke-dasharray:none;stroke-opacity:1"
       d="M 846.1105,303.29717 V 186.16835"
       id="path5214-77"
       inkscape:connector-curvature="0"
       sodipodi:nodetypes="cc" />
    <path
       style="fill:none;fill-rule:evenodd;stroke:#000000;stroke-width:9.375;stroke-linecap:round;stroke-linejoin:miter;stroke-miterlimit:4;stroke-dasharray:none;stroke-opacity:1"
       d="M 869.548,303.29717 V 186.16835"
       id="path5214-11"
       inkscape:connector-curvature="0"
       sodipodi:nodetypes="cc" />
    <path
       style="fill:none;fill-rule:evenodd;stroke:#000000;stroke-width:9.375;stroke-linecap:round;stroke-linejoin:miter;stroke-miterlimit:4;stroke-dasharray:none;stroke-opacity:1"
       d="m 892.9855,303.29717 v -23.37881 l 23.4375,-23.4375 v -70.31251"
       id="path5214-776"
       inkscape:connector-curvature="0"
       sodipodi:nodetypes="cccc" />
    <path
       style="fill:none;fill-rule:evenodd;stroke:#000000;stroke-width:9.375;stroke-linecap:round;stroke-linejoin:miter;stroke-miterlimit:4;stroke-dasharray:none;stroke-opacity:1"
       d="m 916.423,303.35586 v -23.4375 l 23.43751,-23.4375 v -70.31251"
       id="path5214-73"
       inkscape:connector-curvature="0"
       sodipodi:nodetypes="cccc" />
    <path
       style="fill:none;fill-rule:evenodd;stroke:#000000;stroke-width:9.375;stroke-linecap:round;stroke-linejoin:miter;stroke-miterlimit:4;stroke-dasharray:none;stroke-opacity:1"
       d="m 986.73551,303.29717 v -46.81631 l -23.4375,-23.43751 v -46.875"
       id="path5214-65"
       inkscape:connector-curvature="0"
       sodipodi:nodetypes="cccc" />
    <path
       style="fill:none;fill-rule:evenodd;stroke:#000000;stroke-width:9.375;stroke-linecap:round;stroke-linejoin:miter;stroke-miterlimit:4;stroke-dasharray:none;stroke-opacity:1"
       d="M 1010.173,303.35586 V 186.22704"
       id="path5214-948"
       inkscape:connector-curvature="0"
       sodipodi:nodetypes="cc" />
    <path
       style="fill:none;fill-rule:evenodd;stroke:#000000;stroke-width:9.375;stroke-linecap:round;stroke-linejoin:miter;stroke-miterlimit:4;stroke-dasharray:none;stroke-opacity:1"
       d="M 1127.3019,186.22704 H 1010.173"
       id="path5214-97-2-5-64-1"
       inkscape:connector-curvature="0"
       sodipodi:nodetypes="cc" />
    <path
       style="fill:none;fill-rule:evenodd;stroke:#000000;stroke-width:9.375;stroke-linecap:round;stroke-linejoin:miter;stroke-miterlimit:4;stroke-dasharray:none;stroke-opacity:1"
       d="M 1127.3019,162.73085 H 1010.173"
       id="path5214-97-2-5-64-2"
       inkscape:connector-curvature="0"
       sodipodi:nodetypes="cc" />
    <path
       style="fill:none;fill-rule:evenodd;stroke:#000000;stroke-width:9.375;stroke-linecap:round;stroke-linejoin:miter;stroke-miterlimit:4;stroke-dasharray:none;stroke-opacity:1"
       d="M 1127.3018,139.29335 H 1010.173"
       id="path5214-97-2-5-64-9"
       inkscape:connector-curvature="0"
       sodipodi:nodetypes="cc" />
    <path
       style="fill:none;fill-rule:evenodd;stroke:#000000;stroke-width:9.375;stroke-linecap:round;stroke-linejoin:miter;stroke-miterlimit:4;stroke-dasharray:none;stroke-opacity:1"
       d="M 1127.3018,115.85585 H 1010.173"
       id="path5214-97-2-5-64-3"
       inkscape:connector-curvature="0"
       sodipodi:nodetypes="cc" />
    <path
       style="fill:none;fill-rule:evenodd;stroke:#000000;stroke-width:9.375;stroke-linecap:round;stroke-linejoin:miter;stroke-miterlimit:4;stroke-dasharray:none;stroke-opacity:1"
       d="M 1127.3018,92.41835 H 1010.173"
       id="path5214-97-2-5-64-90"
       inkscape:connector-curvature="0"
       sodipodi:nodetypes="cc" />
    <path
       style="fill:none;fill-rule:evenodd;stroke:#000000;stroke-width:9.375;stroke-linecap:round;stroke-linejoin:miter;stroke-miterlimit:4;stroke-dasharray:none;stroke-opacity:1"
       d="M 1127.3018,68.980839 H 1010.173"
       id="path5214-97-2-5-64-8"
       inkscape:connector-curvature="0"
       sodipodi:nodetypes="cc" />
    <path
       style="fill:none;fill-rule:evenodd;stroke:#000000;stroke-width:9.375;stroke-linecap:round;stroke-linejoin:miter;stroke-miterlimit:4;stroke-dasharray:none;stroke-opacity:1"
       d="M 1127.3018,45.543339 H 1010.173"
       id="path5214-97-2-5-64-85"
       inkscape:connector-curvature="0"
       sodipodi:nodetypes="cc" />
    <path
       style="fill:none;fill-rule:evenodd;stroke:#000000;stroke-width:9.375;stroke-linecap:round;stroke-linejoin:miter;stroke-miterlimit:4;stroke-dasharray:none;stroke-opacity:1"
       d="M 1127.3018,22.105839 H 1010.173"
       id="path5214-97-2-5-64-0"
       inkscape:connector-curvature="0"
       sodipodi:nodetypes="cc" />
    <path
       style="fill:none;fill-rule:evenodd;stroke:#000000;stroke-width:9.375;stroke-linecap:round;stroke-linejoin:miter;stroke-miterlimit:4;stroke-dasharray:none;stroke-opacity:1"
       d="M 1127.3018,-1.331661 H 1010.173"
       id="path5214-97-2-5-64-96"
       inkscape:connector-curvature="0"
       sodipodi:nodetypes="cc" />
    <path
       style="fill:none;fill-rule:evenodd;stroke:#000000;stroke-width:9.375;stroke-linecap:round;stroke-linejoin:miter;stroke-miterlimit:4;stroke-dasharray:none;stroke-opacity:1"
       d="M 1127.3019,-24.769161 H 1010.173"
       id="path5214-97-2-5-64-38"
       inkscape:connector-curvature="0"
       sodipodi:nodetypes="cc" />
    <path
       style="fill:none;fill-rule:evenodd;stroke:#000000;stroke-width:9.375;stroke-linecap:round;stroke-linejoin:miter;stroke-miterlimit:4;stroke-dasharray:none;stroke-opacity:1"
       d="M 1127.3018,-48.206661 H 1010.173"
       id="path5214-97-2-5-64-5"
       inkscape:connector-curvature="0"
       sodipodi:nodetypes="cc" />
    <path
       style="fill:none;fill-rule:evenodd;stroke:#000000;stroke-width:9.375;stroke-linecap:round;stroke-linejoin:miter;stroke-miterlimit:4;stroke-dasharray:none;stroke-opacity:1"
       d="m 1127.3605,-71.644161 h -46.875 l -23.4375,-23.4375 h -46.8164"
       id="path5214-97-2-5-64-11"
       inkscape:connector-curvature="0"
       sodipodi:nodetypes="cccc" />
    <path
       style="fill:none;fill-rule:evenodd;stroke:#000000;stroke-width:9.375;stroke-linecap:round;stroke-linejoin:miter;stroke-miterlimit:4;stroke-dasharray:none;stroke-opacity:1"
       d="M 1127.3605,-118.51915 H 1010.2317"
       id="path5214-97-2-5-64-59"
       inkscape:connector-curvature="0"
       sodipodi:nodetypes="cc" />
    <path
       style="fill:none;fill-rule:evenodd;stroke:#000000;stroke-width:9.375;stroke-linecap:round;stroke-linejoin:miter;stroke-miterlimit:4;stroke-dasharray:none;stroke-opacity:1"
       d="M 1127.3605,-141.95665 H 1010.2317"
       id="path5214-97-2-5-64-84"
       inkscape:connector-curvature="0"
       sodipodi:nodetypes="cc" />
    <path
       style="fill:none;fill-rule:evenodd;stroke:#000000;stroke-width:9.375;stroke-linecap:round;stroke-linejoin:miter;stroke-miterlimit:4;stroke-dasharray:none;stroke-opacity:1"
       d="M 1127.3605,-165.39415 H 1010.2317"
       id="path5214-97-2-5-64-81"
       inkscape:connector-curvature="0"
       sodipodi:nodetypes="cc" />
    <path
       style="fill:none;fill-rule:evenodd;stroke:#000000;stroke-width:9.375;stroke-linecap:round;stroke-linejoin:miter;stroke-miterlimit:4;stroke-dasharray:none;stroke-opacity:1"
       d="M 1127.3605,-188.83166 H 1010.2316"
       id="path5214-97-2-5-64-03"
       inkscape:connector-curvature="0"
       sodipodi:nodetypes="cc" />
  </g>
</svg>
